<svg width="264" height="264" viewBox="0 0 264 264" fill="none" xmlns="http://www.w3.org/2000/svg">
<path fill-rule="evenodd" clip-rule="evenodd" d="M143.001 22V77H121.001V22H143.001ZM217.56 61.9964L178.67 100.887L163.113 85.3309L202.004 46.4401L217.56 61.9964ZM61.997 46.4401L100.888 85.3309L85.3315 100.887L46.4407 61.9964L61.997 46.4401ZM21.9973 121.007H76.9973V143.007H21.9973V121.007ZM186.997 121.007H241.997V143.007H186.997V121.007ZM100.888 178.669L61.997 217.56L46.4407 202.004L85.3315 163.113L100.888 178.669ZM178.67 163.113L217.56 202.004L202.004 217.56L163.113 178.669L178.67 163.113ZM143.001 187V242H121.001V187H143.001Z" fill="#646464"/>
</svg>
